<svg width="87" height="42" xmlns="http://www.w3.org/2000/svg" xmlns:xlink="http://www.w3.org/1999/xlink"><defs><linearGradient x1="52.818%" y1="74.131%" x2="87.898%" y2="10.799%" id="b"><stop stop-color="#FFF" offset="0%"/><stop stop-color="#EFF0F0" offset="29.58%"/><stop stop-color="#C6C8CA" offset="86.95%"/><stop stop-color="#BCBEC0" offset="100%"/></linearGradient><linearGradient x1="14.398%" y1="80.093%" x2="52.792%" y2="21.682%" id="d"><stop stop-color="#BCBEC0" offset="0%"/><stop stop-color="#C6C8CA" offset="13.05%"/><stop stop-color="#EFF0F0" offset="70.42%"/><stop stop-color="#FFF" offset="100%"/></linearGradient><path d="M29.744 15.058c0 8.099-6.66 14.665-14.872 14.665a15.02 15.02 0 01-5.416-1.01c4.703 1.462 10.041.049 13.318-3.969 4.25-5.208 3.432-12.805-1.794-17.032l3.284-4.025c3.347 2.695 5.48 6.783 5.48 11.371zM7.012 5.428c3.404-4.17 9.025-5.536 13.855-3.795A14.958 14.958 0 0014.872.387C6.659.387 0 6.953 0 15.05c0 4.61 2.16 8.725 5.536 11.413l3.277-4.01c-5.233-4.22-6.045-11.817-1.8-17.026z" id="a"/></defs><g fill="none" fill-rule="evenodd"><g fill-rule="nonzero"><path d="M12.324 21.424l1.589-10.373h-1.734c-.795 0-1.842-.443-2.167-1.292-.109-.295-.326-1.292 1.011-2.252.47-.332.795-.701.831-.996a.78.78 0 00-.217-.776c-.253-.258-.83-.443-1.553-.443-1.228 0-2.095.739-2.168 1.255-.072.407.253.702.506.886.759.591.94 1.44.47 2.252-.506.812-1.554 1.366-2.673 1.366h-1.77c-.145.997-2.53 16.501-2.71 17.72h9.537c.036-.517.47-3.47 1.048-7.347z" fill="#C6C6C6"/><g fill="#FFF"><path d="M1.076 32.562h4.007c1.707 0 2.115.9 2.003 1.76-.11.666-.519 1.175-1.298 1.488.964.391 1.335.978 1.187 1.917-.185 1.174-1.15 2.035-2.412 2.035H0l1.076-7.2zm2.634 3.013c.78 0 1.15-.43 1.224-.94.075-.547-.148-.938-.927-.938h-.705l-.297 1.878h.705zm-.445 3.13c.816 0 1.261-.352 1.373-1.056.074-.587-.223-.978-1.002-.978h-.78l-.296 2.034h.705zM12.54 39.84c-1.039.078-1.558-.039-1.78-.509-.557.353-1.15.548-1.819.548-1.187 0-1.595-.626-1.484-1.37.037-.351.223-.664.557-.938.63-.587 2.263-.666 2.894-1.135.037-.509-.149-.705-.742-.705-.705 0-1.262.235-2.263.94l.222-1.644c.854-.665 1.67-.939 2.634-.939 1.225 0 2.3.509 2.078 1.917l-.223 1.605c-.074.548-.074.743.52.743l-.594 1.487zm-1.78-2.465c-.557.352-1.596.313-1.707 1.056-.037.353.148.627.482.627.334 0 .742-.157 1.039-.392-.037-.117 0-.274.037-.508l.148-.783zM14.507 34.205h2.077l-.111.744c.668-.587 1.15-.822 1.818-.822 1.15 0 1.707.744 1.521 1.996l-.556 3.678h-2.078l.445-3.052c.074-.548-.074-.822-.482-.822-.334 0-.63.196-.928.587l-.482 3.248h-2.078l.854-5.557zM21.445 32.562h2.077l-.52 3.56 2.004-1.917h2.56l-2.56 2.387 2.041 3.21h-2.634l-1.596-2.584h-.037l-.37 2.583h-2.078z"/><g><path d="M1.076 32.562h4.007c1.707 0 2.115.9 2.003 1.76-.11.666-.519 1.175-1.298 1.488.964.391 1.335.978 1.187 1.917-.185 1.174-1.15 2.035-2.412 2.035H0l1.076-7.2zm2.634 3.013c.78 0 1.15-.43 1.224-.94.075-.547-.148-.938-.927-.938h-.705l-.297 1.878h.705zm-.445 3.13c.816 0 1.261-.352 1.373-1.056.074-.587-.223-.978-1.002-.978h-.78l-.296 2.034h.705zM12.54 39.84c-1.039.078-1.558-.039-1.78-.509-.557.353-1.15.548-1.819.548-1.187 0-1.595-.626-1.484-1.37.037-.351.223-.664.557-.938.63-.587 2.263-.666 2.894-1.135.037-.509-.149-.705-.742-.705-.705 0-1.262.235-2.263.94l.222-1.644c.854-.665 1.67-.939 2.634-.939 1.225 0 2.3.509 2.078 1.917l-.223 1.605c-.074.548-.074.743.52.743l-.594 1.487zm-1.78-2.465c-.557.352-1.596.313-1.707 1.056-.037.353.148.627.482.627.334 0 .742-.157 1.039-.392-.037-.117 0-.274.037-.508l.148-.783zM14.507 34.205h2.077l-.111.744c.668-.587 1.15-.822 1.818-.822 1.15 0 1.707.744 1.521 1.996l-.556 3.678h-2.078l.445-3.052c.074-.548-.074-.822-.482-.822-.334 0-.63.196-.928.587l-.482 3.248h-2.078l.854-5.557zM21.445 32.562h2.077l-.52 3.56 2.004-1.917h2.56l-2.56 2.387 2.041 3.21h-2.634l-1.596-2.584h-.037l-.37 2.583h-2.078z"/></g></g><g fill="#C6C6C6"><path d="M29.196 32.562h2.472l-1.103 7.2h-2.473zM32.848 32.562h3.5c2.7 0 3.5 2.035 3.234 3.717-.229 1.644-1.522 3.522-3.88 3.522h-3.92l1.066-7.24zm2.282 5.517c1.18 0 1.865-.587 2.055-1.878.152-.94-.152-1.878-1.446-1.878h-.685l-.57 3.795.646-.039z"/></g><path d="M25.633 1.133c9.225 0 15.615 4.023 14.027 14.063-1.286 8.122-7.826 13.236-15.88 13.236h-1.89l1.286-8.197c3.251-.038 5.973-1.58 6.54-5.114.605-3.798-1.323-5.453-4.877-5.49h-2.646c-.605 0-1.399-.339-1.588-.865-.076-.15-.19-.752.794-1.467.378-.263 1.02-.79 1.172-1.466a1.465 1.465 0 00-.454-1.429c-.453-.414-1.21-.64-2.155-.64-1.626 0-2.835.978-2.987 1.88v.189c0 .376.152.902.794 1.391.227.188.492.451.492.79 0 .15-.038.338-.19.526-.377.64-1.285 1.053-2.23 1.053h-1.739l1.399-8.46h10.132z" fill="#FFF"/></g><g fill="#FFF" fill-rule="nonzero"><path d="M60.245 39.886l.115-.175c.143-.206.307-.227.55-.103.228.125.6.344 1.1.344.421 0 .685-.197.685-.512 0-.821-2.442-.513-2.442-2.242 0-.99.85-1.51 1.878-1.51.657 0 1.107.22 1.364.367.222.117.25.322.143.55l-.1.175c-.114.235-.3.264-.543.154-.214-.095-.528-.249-.935-.249-.422 0-.665.176-.665.49 0 .836 2.436.506 2.436 2.228 0 .886-.736 1.553-1.871 1.553a2.858 2.858 0 01-1.643-.513c-.193-.117-.214-.337-.072-.557zM64.274 36.267c-.079-.278.057-.461.335-.461h.465c.242 0 .385.117.435.366l.793 2.945c.057.264.1.535.1.535h.022s.042-.271.107-.535l.828-2.945c.05-.234.2-.359.443-.359h.364c.236 0 .386.117.443.36l.821 2.944c.079.264.108.535.108.535h.021s.036-.271.107-.535l.779-2.945c.057-.249.2-.366.443-.366h.442c.286 0 .415.183.336.461l-1.264 4.235c-.064.234-.222.344-.45.344h-.65c-.243 0-.393-.117-.45-.359l-.75-2.513c-.079-.263-.114-.542-.114-.542h-.022s-.05.279-.121.542l-.743 2.52c-.057.235-.2.36-.443.36h-.664c-.236 0-.379-.11-.443-.345l-1.278-4.242zM72.373 36.223c0-.263.136-.417.393-.417h.421c.257 0 .393.146.393.417v4.213c0 .278-.136.417-.393.417h-.421c-.257 0-.393-.139-.393-.417v-4.213zM74.394 39.886l.115-.175c.143-.206.307-.227.55-.103.228.125.6.344 1.1.344.421 0 .685-.197.685-.512 0-.821-2.435-.513-2.435-2.242 0-.99.85-1.51 1.878-1.51.657 0 1.107.22 1.371.367.222.117.25.322.143.55l-.093.175c-.114.235-.3.264-.535.154-.214-.095-.529-.249-.936-.249-.421 0-.664.176-.664.49 0 .836 2.435.506 2.435 2.228 0 .886-.735 1.553-1.87 1.553a2.831 2.831 0 01-1.636-.513c-.229-.117-.25-.337-.108-.557zM78.723 34.245c0-.263.143-.417.407-.417h.414c.271 0 .407.146.407.417v2.037c0 .25-.028.425-.028.425h.021a1.933 1.933 0 011.707-1.018c1.093 0 1.714.578 1.714 1.92v2.827c0 .278-.143.417-.407.417h-.414c-.272 0-.4-.139-.4-.417v-2.572c0-.615-.157-1.025-.772-1.025-.857 0-1.414.71-1.414 1.67v1.927c0 .278-.135.417-.407.417h-.414c-.257 0-.407-.139-.407-.417v-6.19h-.007zM84.672 35.044c.115 0 .179-.073.179-.19 0-.118-.064-.184-.172-.184h-.178v.374h.171zm-.385-.44c0-.066.028-.095.092-.095h.329c.207 0 .343.132.343.344 0 .176-.114.279-.2.3v.008s.014.015.036.066l.15.3c.035.066.014.11-.05.11h-.03c-.056 0-.092-.022-.113-.073l-.172-.366h-.178v.344c0 .066-.029.095-.093.095h-.029c-.064 0-.093-.029-.093-.095v-.938h.008zm.357 1.356c.471 0 .835-.389.835-.887s-.364-.886-.835-.886c-.465 0-.822.388-.822.886s.357.887.822.887zm0-1.978c.585 0 1.05.483 1.05 1.091s-.465 1.092-1.05 1.092c-.572 0-1.036-.484-1.036-1.092 0-.608.464-1.091 1.036-1.091z"/></g><g transform="translate(56 1)"><mask id="c" fill="#fff"><use xlink:href="#a"/></mask><use fill="#F1F2F2" fill-rule="nonzero" xlink:href="#a"/><path d="M20.975 7.564s7.404 3.485 7.088 13.574c-.091 2.933-1.744 3.83-2.988 4.907-2.947 2.546-5.316 2.974-6.68 3.409-1.365.428-5.668.193-5.668.193l-5.949-1.94L20.975 7.565z" fill="url(#b)" fill-rule="nonzero" opacity=".6" mask="url(#c)"/><path d="M8.79 22.263S1.384 18.778 1.701 8.688c.112-3.595 2.82-5.113 4.226-6.19C8.867.242 12.263 0 12.263 0l5.168.035 4.22 1.414L8.788 22.263z" fill="url(#d)" fill-rule="nonzero" opacity=".6" mask="url(#c)"/></g></g></svg>